<?xml version="1.0" encoding="utf-8"?>
<!-- Generator: Adobe Illustrator 16.0.0, SVG Export Plug-In . SVG Version: 6.00 Build 0)  -->
<!DOCTYPE svg PUBLIC "-//W3C//DTD SVG 1.1//EN" "http://www.w3.org/Graphics/SVG/1.1/DTD/svg11.dtd">
<svg version="1.1" id="Layer_1" xmlns="http://www.w3.org/2000/svg" xmlns:xlink="http://www.w3.org/1999/xlink" x="0px" y="0px"
	 width="500px" height="500px" viewBox="0 0 500 500" enable-background="new 0 0 500 500" xml:space="preserve">
<g id="XMLID_1158_">
	<g id="XMLID_671_">
		<g id="XMLID_1157_">
			<path id="XMLID_1312_" d="M353.531,498.954H148.679c-3.605,0-6.996-1.737-9.103-4.665c-2.107-2.93-2.677-6.694-1.529-10.115
				l0.5-1.489c5.292-15.765-1.735-33.188-16.349-40.534C50.89,406.308,6.592,334.498,6.592,254.746v-57.444
				c0-6.194,5.02-11.214,11.214-11.214h463.315c6.193,0,11.214,5.02,11.214,11.214v57.444c0,78.385-43.202,149.634-112.744,185.943
				c-15.66,8.174-22.407,26.558-15.7,42.759c1.432,3.462,1.042,7.407-1.038,10.522C360.771,497.084,357.273,498.954,353.531,498.954
				z M162.539,476.525h176.642c-2.454-22.437,8.898-44.689,30.029-55.72c62.112-32.428,100.697-96.059,100.697-166.06v-46.229
				H29.021v46.229c0,71.223,39.563,135.353,103.251,167.365C152.705,432.384,164.331,454.302,162.539,476.525z"/>
		</g>
		<g id="XMLID_1155_">
			<path id="XMLID_1311_" d="M304.366,208.517c-2.353,0-4.722-0.736-6.745-2.26L54.267,22.696
				c-4.946-3.73-5.927-10.763-2.199-15.707c3.73-4.943,10.763-5.929,15.705-2.201l243.354,183.56
				c4.945,3.73,5.929,10.763,2.203,15.707C311.122,206.978,307.767,208.517,304.366,208.517z"/>
		</g>
		<g id="XMLID_1156_">
			<path id="XMLID_1310_" d="M253.897,208.519c-2,0-4.021-0.534-5.853-1.655L38.334,78.254c-5.278-3.239-6.934-10.143-3.697-15.424
				c3.241-5.279,10.15-6.935,15.424-3.698l209.711,128.609c5.278,3.24,6.935,10.144,3.697,15.424
				C261.354,206.616,257.672,208.519,253.897,208.519z"/>
		</g>
	</g>
	<g id="XMLID_1159_">
		<path id="XMLID_1309_" d="M481.122,265.961H17.807c-6.194,0-11.214-5.021-11.214-11.215s5.02-11.215,11.214-11.215h463.315
			c6.193,0,11.214,5.021,11.214,11.215S487.315,265.961,481.122,265.961z"/>
	</g>
</g>
</svg>
