<?xml version="1.0" encoding="utf-8"?>
<!-- Generator: Adobe Illustrator 16.0.0, SVG Export Plug-In . SVG Version: 6.00 Build 0)  -->
<!DOCTYPE svg PUBLIC "-//W3C//DTD SVG 1.1//EN" "http://www.w3.org/Graphics/SVG/1.1/DTD/svg11.dtd">
<svg version="1.1" id="Layer_1" xmlns="http://www.w3.org/2000/svg" xmlns:xlink="http://www.w3.org/1999/xlink" x="0px" y="0px"
	 width="250px" height="250px" viewBox="0 0 250 250" enable-background="new 0 0 250 250" xml:space="preserve">
<g id="XMLID_1158_">
	<g id="XMLID_671_">
		<g id="XMLID_1157_">
			<path id="XMLID_1312_" d="M171.734,236.517H80.4c-1.607,0-3.119-0.774-4.059-2.08s-1.193-2.984-0.682-4.51l0.223-0.664
				c2.359-7.028-0.773-14.797-7.289-18.072c-31.793-15.98-51.543-47.997-51.543-83.555v-25.611c0-2.762,2.238-5,5-5h206.57
				c2.762,0,5,2.238,5,5v25.611c0,34.948-19.262,66.715-50.268,82.903c-6.982,3.645-9.99,11.841-7,19.064
				c0.639,1.543,0.465,3.303-0.463,4.691C174.963,235.683,173.403,236.517,171.734,236.517z M86.58,226.517h78.756
				c-1.094-10.003,3.968-19.925,13.389-24.843c27.693-14.458,44.896-42.828,44.896-74.038v-20.611H27.051v20.611
				c0,31.755,17.64,60.348,46.035,74.62C82.195,206.836,87.379,216.608,86.58,226.517z"/>
		</g>
		<g id="XMLID_1155_">
			<path id="XMLID_1311_" d="M149.814,107.024c-1.049,0-2.105-0.328-3.008-1.008l-108.5-81.841c-2.205-1.663-2.643-4.799-0.98-7.003
				c1.663-2.204,4.799-2.644,7.002-0.981l108.5,81.841c2.205,1.663,2.644,4.799,0.982,7.003
				C152.826,106.338,151.33,107.024,149.814,107.024z"/>
		</g>
		<g id="XMLID_1156_">
			<path id="XMLID_1310_" d="M127.313,107.025c-0.892,0-1.793-0.238-2.609-0.738l-93.5-57.341c-2.354-1.444-3.092-4.522-1.648-6.877
				c1.445-2.354,4.525-3.092,6.877-1.648l93.5,57.341c2.354,1.444,3.092,4.522,1.648,6.877
				C130.637,106.177,128.995,107.025,127.313,107.025z"/>
		</g>
	</g>
	<g id="XMLID_1159_">
		<path id="XMLID_1309_" d="M228.621,132.636H22.051c-2.762,0-5-2.238-5-5s2.238-5,5-5h206.57c2.762,0,5,2.238,5,5
			S231.383,132.636,228.621,132.636z"/>
	</g>
</g>
</svg>
